#!OML:ASF F:\VICON\USERDATA\INSTALL\rory3\rory3.ASF
:FULLY-SPECIFIED
:DEGREES
111
root -12.9622 17.8085 5.29825 -6.19912 -5.92064 3.41236
lowerback 10.9002 2.45495 -2.55012
upperback 1.10773 2.92299 -0.53253
thorax -5.05011 1.48723 0.436121
lowerneck -20.5524 -5.36162 -12.188
upperneck 29.3437 -6.19559 8.31645
head 14.1526 -2.93431 4.31414
rclavicle -3.31194e-014 -1.98785e-015
rhumerus -34.135 -16.2941 -79.4061
rradius 29.3465
rwrist 7.81707
rhand -15.4434 10.5513
rfingers 7.12502
rthumb 10.7371 -19.1544
lclavicle -3.31194e-014 -1.98785e-015
lhumerus -36.9121 5.52692 84.113
lradius 30.27
lwrist -7.95307
lhand -17.8377 27.3735
lfingers 7.12502
lthumb 8.42701 57.1853
rfemur -4.36479 -2.46571 14.9723
rtibia 64.3766
rfoot 3.53259 -4.47259
rtoes 9.28232
lfemur -6.99824 -3.3191 -28.0139
ltibia 17.5893
lfoot 0.747783 -0.203849
ltoes -5.63122
112
root -12.9494 17.8107 5.42962 -6.28031 -5.65851 3.53076
lowerback 10.8677 2.35288 -2.62684
upperback 1.14019 2.78004 -0.530841
thorax -4.99745 1.41786 0.50514
lowerneck -20.4148 -5.2842 -12.1465
upperneck 29.3135 -6.08173 8.22642
head 14.0888 -2.895 4.2907
rclavicle 2.55811e-014 -3.97569e-015
rhumerus -34.2143 -16.8533 -79.0197
rradius 28.9792
rwrist 8.96143
rhand -15.3916 10.8437
rfingers 7.12502
rthumb 10.787 -18.8593
lclavicle 2.55811e-014 -3.97569e-015
lhumerus -36.7979 5.38212 84.18
lradius 30.7992
lwrist -7.68897
lhand -18.3162 27.1929
lfingers 7.12502
lthumb 7.96512 57.0228
rfemur -5.41323 -2.79808 14.6595
rtibia 65.0736
rfoot 2.76056 -4.81695
rtoes 9.40172
lfemur -6.45619 -3.40734 -28.3254
ltibia 17.6566
lfoot 0.266679 -0.199161
ltoes -4.75914
113
root -12.9393 17.8088 5.5607 -6.27664 -5.4064 3.80578
lowerback 10.797 2.2766 -2.90471
upperback 1.09546 2.64514 -0.573904
thorax -5.01143 1.35716 0.638199
lowerneck -20.2685 -5.22071 -12.1175
upperneck 29.3237 -5.99884 8.1684
head 14.0468 -2.867 4.27844
rclavicle 6.4077e-015 -2.90226e-014
rhumerus -34.4215 -17.6903 -78.5229
rradius 28.5782
rwrist 10.0882
rhand -15.4626 10.9965
rfingers 7.12502
rthumb 10.7186 -18.7101
lclavicle 6.4077e-015 -2.90226e-014
lhumerus -36.6761 5.43708 84.1181
lradius 31.1606
lwrist -7.48312
lhand -18.5224 26.5992
lfingers 7.12502
lthumb 7.76615 56.4365
rfemur -6.51226 -3.04975 14.1808
rtibia 65.6112
rfoot 1.91038 -4.87616
rtoes 10.0342
lfemur -6.0658 -3.42238 -28.7925
ltibia 17.8119
lfoot -0.104845 -0.344059
ltoes -4.95538
114
root -12.9346 17.8069 5.69066 -6.34174 -5.23937 3.93332
lowerback 10.8246 2.2381 -3.07286
upperback 1.07826 2.57245 -0.574893
thorax -5.04976 1.32524 0.741011
lowerneck -20.2843 -5.19481 -12.0699
upperneck 29.4647 -5.95763 8.08952
head 14.1012 -2.85623 4.25037
rclavicle -1.92604e-014 1.0138e-014
rhumerus -34.7319 -18.2258 -78.2245
rradius 28.3831
rwrist 10.176
rhand -15.6447 10.9441
rfingers 7.12502
rthumb 10.5429 -18.7715
lclavicle -1.92604e-014 1.0138e-014
lhumerus -36.5327 5.54798 84.002
lradius 31.6052
lwrist -7.2123
lhand -18.367 25.8518
lfingers 7.12502
lthumb 7.91618 55.6836
rfemur -7.52282 -3.10878 13.9806
rtibia 65.9843
rfoot 0.970308 -4.9147
rtoes 10.1321
lfemur -5.64512 -3.31563 -29.0574
ltibia 18.0412
lfoot -0.642795 -0.552514
ltoes -5.96026
115
root -12.9319 17.8049 5.8155 -6.41899 -5.02688 3.80892
lowerback 10.9174 2.16092 -2.96672
upperback 1.08347 2.4822 -0.519667
thorax -5.09046 1.27939 0.749803
lowerneck -20.3067 -5.17187 -11.9643
upperneck 29.5844 -5.90854 7.92017
head 14.1413 -2.84709 4.17504
rclavicle -1.83255e-014 1.35174e-014
rhumerus -35.0719 -18.6021 -77.964
rradius 28.3419
rwrist 10.0918
rhand -15.7791 11.0841
rfingers 7.12502
rthumb 10.4133 -18.638
lclavicle -1.83255e-014 1.35174e-014
lhumerus -36.4439 5.48666 83.9705
lradius 32.2876
lwrist -6.72982
lhand -18.2657 25.8911
lfingers 7.12502
lthumb 8.01389 55.7192
rfemur -8.51722 -3.17126 14.1099
rtibia 66.1932
rfoot -0.0021272 -5.08219
rtoes 10.0761
lfemur -5.24643 -3.24456 -29.0237
ltibia 18.3049
lfoot -1.25839 -0.545437
ltoes -4.53347
116
root -12.929 17.8013 5.93796 -6.43059 -4.66868 3.87547
lowerback 10.9309 2.0389 -3.09868
upperback 1.09342 2.30557 -0.489261
thorax -5.08739 1.19533 0.882723
lowerneck -20.3342 -5.13852 -11.9002
upperneck 29.6177 -5.8349 7.78582
head 14.1446 -2.82599 4.12287
rclavicle 1.8313e-014 -9.14409e-015
rhumerus -35.2848 -19.0258 -77.6596
rradius 28.2248
rwrist 10.0842
rhand -15.8713 11.4158
rfingers 7.12502
rthumb 10.3244 -18.3107
lclavicle 1.8313e-014 -9.14409e-015
lhumerus -36.3119 5.46225 83.9845
lradius 32.9229
lwrist -6.1882
lhand -18.3103 25.657
lfingers 7.12502
lthumb 7.9709 55.4867
rfemur -9.55409 -3.32532 13.9777
rtibia 66.2565
rfoot -0.919589 -5.07308
rtoes 10.4958
lfemur -4.97772 -3.2955 -29.214
ltibia 18.635
lfoot -1.78025 -0.529536
ltoes -2.49184
